# xmcd
# Track frame offsets:
# 150
# 14844
# 29834
# 42557
# 53270
# 67411
# 81411
# 97250
# 109987
# 123429
#
# Disc length: 1880 seconds
# Revision: 0
# Processed by: cddbd v1.5.1PL2 Copyright (c) Steve Scherf et al.
# Submitted via: VisiTrax 2.10.0.248 - For more info visit www.synapsa.com
#
DISCID=9a07560a
DTITLE=Marty Robbins - Come Back To Me
DYEAR=1982
DGENRE=Country
TTITLE0=Some Memories Just Won't Die
TTITLE1=It's Not All Over
TTITLE2=The American Dream
TTITLE3=Here Your Memory Comes Again
TTITLE4=The First Song That Wasn't The Blues
TTITLE5=Prayin' For Rain
TTITLE6=That's All She Wrote
TTITLE7=Tie Your Dreams To Mine
TTITLE8=If Her Blue Eyes Don't Get You
TTITLE9=Lover, Lover
EXTD=
EXTT0=
EXTT1=
EXTT2=
EXTT3=
EXTT4=
EXTT5=
EXTT6=
EXTT7=
EXTT8=
EXTT9=
PLAYORDER=
